<?xml version="1.0" encoding="UTF-8"?>
<!DOCTYPE svg PUBLIC "-//W3C//DTD SVG 1.1//EN" "http://www.w3.org/Graphics/SVG/1.1/DTD/svg11.dtd">
<!-- Creator: CorelDRAW -->
<svg xmlns="http://www.w3.org/2000/svg" xml:space="preserve" width="210mm" height="297mm" version="1.1" style="shape-rendering:geometricPrecision; text-rendering:geometricPrecision; image-rendering:optimizeQuality; fill-rule:evenodd; clip-rule:evenodd"
viewBox="0 0 21000 29700"
 xmlns:xlink="http://www.w3.org/1999/xlink"
 xmlns:xodm="http://www.corel.com/coreldraw/odm/2003">
 <defs>
  <style type="text/css">
   <![CDATA[
    .fil3 {fill:#00ADEF;fill-rule:nonzero}
    .fil2 {fill:#80CC28;fill-rule:nonzero}
    .fil1 {fill:#F1511B;fill-rule:nonzero}
    .fil4 {fill:#FBBC09;fill-rule:nonzero}
    .fil0 {fill:white;fill-rule:nonzero}
   ]]>
  </style>
 </defs>
 <g id="Слой_x0020_1">
  <metadata id="CorelCorpID_0Corel-Layer"/>
  <g>
   <path class="fil0" d="M21083.33 14634.9l0 -372.25 -462.26 0 0 -578.7 -15.56 4.79 -434.19 132.85 -8.56 2.6 0 438.49 -685.29 0 0 -244.28c0,-113.74 25.43,-200.78 75.56,-258.83 49.78,-57.35 120.97,-86.51 211.78,-86.51 65.28,0 132.87,15.38 200.89,45.7l17.06 7.62 -0.02 -392.03 -8.03 -2.95c-63.45,-22.81 -149.76,-34.3 -256.74,-34.3 -134.83,0 -257.34,29.34 -364.18,87.49 -106.9,58.23 -191,141.36 -249.91,247.06 -58.7,105.57 -88.5,227.51 -88.5,362.44l0 268.56 -321.87 0 0 372.25 321.88 0 0 1568.21 462.08 0.01 0 -1568.22 685.3 0 0 996.57c0,410.44 193.6,618.43 575.41,618.43 62.74,0 128.77,-7.35 196.2,-21.75 68.63,-14.78 115.38,-29.55 142.9,-45.31l6.08 -3.6 0 -375.69 -18.8 12.43c-25.08,16.71 -56.31,30.37 -92.92,40.52 -36.77,10.34 -67.49,15.52 -91.28,15.52 -89.44,0 -155.62,-24.1 -196.67,-71.66 -41.52,-48 -62.59,-131.92 -62.59,-249.33l0 -916.13 462.23 0zm-3421.71 1237.19c-167.72,0 -299.95,-55.61 -393.13,-165.16 -93.76,-110.1 -141.26,-267.06 -141.26,-466.5 0,-205.76 47.5,-366.8 141.3,-478.84 93.25,-111.31 224.21,-167.8 389.32,-167.8 160.22,0 287.77,53.95 379.13,160.45 91.81,107.05 138.42,266.8 138.42,474.95 0,210.72 -43.82,372.58 -130.23,480.85 -85.81,107.46 -214.85,162.04 -383.55,162.04l0 0.01zm20.54 -1656.18c-319.97,0 -574.12,93.76 -755.33,278.67 -181.09,184.94 -272.9,440.86 -272.9,760.73 0,303.82 89.62,548.2 266.41,726.23 176.79,178.1 417.38,268.31 715.03,268.31 310.17,0 559.25,-95.07 740.38,-282.54 181.11,-187.27 272.86,-440.78 272.86,-753.18 0,-308.57 -86.1,-554.77 -255.99,-731.62 -169.97,-176.93 -409.04,-266.61 -710.47,-266.61l0.01 0.01zm-1773.24 0c-217.66,0 -397.7,55.67 -535.23,165.44 -138.37,110.43 -208.57,255.25 -208.57,430.5 0,91.1 15.15,172.02 44.96,240.65 30,68.86 76.42,129.49 138.09,180.37 61.2,50.47 155.68,103.34 280.87,157.13 105.25,43.31 183.73,79.94 233.59,108.81 48.73,28.3 83.32,56.74 102.85,84.44 18.98,27.11 28.6,64.21 28.6,110 0,130.37 -97.63,193.8 -298.52,193.8 -74.51,0 -159.51,-15.56 -252.61,-46.23 -92.3,-30.11 -179.77,-74.48 -258.67,-131.13l-19.19 -13.76 0 444.88 7.04 3.28c65.38,30.18 147.81,55.63 244.97,75.66 96.97,20.05 185.08,30.24 261.62,30.24 236.19,0 426.39,-55.94 565.17,-166.37 139.66,-111.18 210.45,-259.43 210.45,-440.74 0,-130.8 -38.11,-242.96 -113.21,-333.43 -74.59,-89.72 -204.06,-172.1 -384.64,-244.91 -143.86,-57.74 -236.02,-105.68 -274.05,-142.47 -36.65,-35.55 -55.26,-85.81 -55.26,-149.47 0,-56.43 22.97,-101.64 70.13,-138.25 47.52,-36.79 113.68,-55.51 196.65,-55.51 76.99,0 155.76,12.16 234.1,36 78.28,23.83 147.04,55.76 204.43,94.8l18.88 12.9 0 -422 -7.25 -3.11c-52.95,-22.71 -122.77,-42.14 -207.58,-57.91 -84.42,-15.66 -161,-23.57 -227.61,-23.57l-0.01 -0.04zm-1948.4 1656.18c-167.68,0 -299.95,-55.61 -393.11,-165.16 -93.78,-110.1 -141.2,-267.02 -141.2,-466.5 0,-205.76 47.48,-366.8 141.3,-478.84 93.16,-111.31 224.11,-167.8 389.3,-167.8 160.16,0 287.7,53.95 379.09,160.45 91.83,107.05 138.42,266.8 138.42,474.95 0,210.72 -43.84,372.58 -130.25,480.85 -85.81,107.46 -214.79,162.04 -383.55,162.04l0 0.01zm20.59 -1656.18c-320.06,0 -574.22,93.76 -755.33,278.67 -181.09,184.94 -272.96,440.86 -272.96,760.73 0,303.94 89.68,548.2 266.47,726.23 176.79,178.1 417.36,268.31 715.01,268.31 310.12,0 559.27,-95.07 740.4,-282.54 181.07,-187.27 272.86,-440.78 272.86,-753.18 0,-308.57 -86.12,-554.77 -256.05,-731.62 -170.01,-176.93 -409.04,-266.61 -710.4,-266.61l0 0.01zm-1729.7 382.79l0 -336.05 -456.44 0 0 1940.42 456.44 0.01 0 -992.6c0,-168.78 38.27,-307.44 113.78,-412.18 74.55,-103.48 173.9,-155.92 295.2,-155.92 41.12,0 87.27,6.78 137.25,20.19 49.47,13.33 85.3,27.81 106.43,43.04l19.19 13.9 0 -460.17 -7.39 -3.17c-42.51,-18.06 -102.64,-27.17 -178.73,-27.17 -114.7,0 -217.35,36.86 -305.27,109.42 -77.17,63.78 -132.95,151.23 -175.6,260.29l-4.86 -0.01zm-1273.86 -382.79c-209.4,0 -396.18,44.9 -555.06,133.42 -159.2,88.72 -282.32,215.38 -366.08,376.45 -83.4,160.67 -125.74,348.35 -125.74,557.66 0,183.34 41.05,351.59 122.2,499.87 81.19,148.53 196.1,264.73 341.56,345.32 145.25,80.49 313.13,121.3 499.01,121.3 216.92,0 402.12,-43.37 550.61,-128.89l6 -3.44 0 -418.18 -19.19 14.01c-67.26,49 -142.43,88.11 -223.31,116.28 -80.67,28.15 -154.22,42.38 -218.72,42.38 -179.1,0 -322.88,-56.04 -427.25,-166.53 -104.59,-110.63 -157.62,-265.98 -157.62,-461.46 0,-196.71 55.3,-356.05 164.3,-473.62 108.66,-117.22 252.71,-176.68 428.11,-176.68 150.03,0 296.22,50.8 434.54,151.13l19.14 13.9 0 -440.62 -6.18 -3.48c-52.05,-29.14 -123.04,-53.2 -211.17,-71.44 -87.76,-18.2 -173.59,-27.38 -255.15,-27.38l0 0zm-1361.24 46.77l-456.44 0 0 1940.4 456.44 0 0 -1940.4zm-223.55 -826.63c-75.13,0 -140.65,25.57 -194.48,76.25 -54.06,50.82 -81.47,114.81 -81.47,190.32 0,74.33 27.09,137.15 80.63,186.62 53.2,49.33 118.92,74.33 195.34,74.33 76.39,0 142.37,-25 196.2,-74.24 54.18,-49.55 81.66,-112.35 81.66,-186.7 0,-72.87 -26.74,-136.2 -79.43,-188.27 -52.64,-51.97 -119.43,-78.3 -198.45,-78.3l0 -0.01zm-1138.86 683.46l0 2083.57 465.82 0 0 -2707.63 -644.72 0 -819.48 2011.14 -795.26 -2011.14 -670.96 0 0 2707.6 437.75 0 0 -2083.75 15.03 0 839.77 2083.77 330.35 0.01 826.67 -2083.57 15.03 0z"/>
  </g>
  <polygon class="fil1" points="2063.91,14737.9 -83.33,14737.9 -83.33,12590.65 2063.91,12590.65 "/>
  <polygon class="fil2" points="4434.71,14737.9 2287.51,14737.9 2287.51,12590.65 4434.71,12590.65 "/>
  <polygon class="fil3" points="2063.85,17109.53 -83.33,17109.53 -83.33,14962.31 2063.85,14962.31 "/>
  <polygon class="fil4" points="4434.71,17109.53 2287.51,17109.53 2287.51,14962.31 4434.71,14962.31 "/>
 </g>
</svg>
